<svg data-name="Layer 1" xmlns="http://www.w3.org/2000/svg" viewBox="0 0 659 760.08431">
  <circle cx="559" cy="660" r="100"/>
  <path d="M394 746H235v-58h-1.88011c-19.73944 45.87338-60.16008 72.08431-112.79973 72.08431C44.17916 760.08431 0 693.61736 0 581.277V289.19148c0-95.49166 38.53883-151.66182 117.5-151.66182 58.28 0 91.18018 20.597 115.61989 66.47034H235V0h159zM232 334.59568c0-36.5-7.48753-75.80613-41.1797-75.80613-14.97337 0-31.8203 12.16554-31.8203 36.5v303.2279c0 30.88436 15.911 39.30613 31.8203 39.30613C232 637.82358 232 581.67052 232 540.49251z"/>
</svg>