<?xml version="1.0" standalone="no"?>
<!DOCTYPE svg PUBLIC "-//W3C//DTD SVG 20010904//EN"
 "http://www.w3.org/TR/2001/REC-SVG-20010904/DTD/svg10.dtd">
<svg version="1.0" xmlns="http://www.w3.org/2000/svg"
 width="700.000000pt" height="700.000000pt" viewBox="0 0 700.000000 700.000000"
 preserveAspectRatio="xMidYMid meet">
<metadata>
Created by potrace 1.11, written by Peter Selinger 2001-2013
</metadata>
<g transform="translate(0.000000,700.000000) scale(0.100000,-0.100000)"
fill="#000000" stroke="none">
<path d="M0 3500 l0 -3500 3500 0 3500 0 0 3500 0 3500 -3500 0 -3500 0 0
-3500z m6387 2823 c-96 -131 -609 -839 -1142 -1573 -532 -734 -974 -1341 -980
-1349 -11 -11 -153 103 -821 660 -445 371 -813 677 -819 681 -5 3 -80 -91
-169 -215 -336 -467 -1989 -2743 -2002 -2757 -12 -12 -14 336 -14 2388 l0
2402 3060 0 3059 0 -172 -237z m170 -5880 c-2 -2 -1378 -2 -3059 -1 l-3054 3
1144 1575 c629 866 1150 1583 1157 1593 12 17 79 -36 825 -658 446 -372 817
-678 823 -681 8 -3 445 594 1087 1483 l1075 1487 3 -2398 c1 -1320 1 -2401 -1
-2403z"/>
</g>
</svg>
